<?xml version="1.0" encoding="UTF-8"?>
<svg id="Calque_2" data-name="Calque 2" xmlns="http://www.w3.org/2000/svg" viewBox="0 0 127.4 34.84">
  <defs>
    <style>
      .cls-1 {
        fill: #fff;
        stroke-width: 0px;
      }
    </style>
  </defs>
  <g id="Calque_1-2" data-name="Calque 1">
    <path class="cls-1" d="m8.73,3.55s8.34,3.42,8.85,10.83-4.95,9.38-6.64,9.89S1.01,24.95.07,16.9c-.64-4.54,3.63-7.96,3.63-7.96,0,0-.46,5.54.23,5.9,0,0,5.92-3.59,4.8-11.29Z"/>
    <g>
      <path class="cls-1" d="m31.38,34.08h-9.05V.38h9.05v33.7Z"/>
      <path class="cls-1" d="m56.95,34.41c-1.89.29-3.67.44-5.34.44-3.6,0-6.74-.69-9.43-2.07-2.69-1.38-4.76-3.38-6.22-6-1.45-2.62-2.18-5.73-2.18-9.32,0-3.16.58-6.05,1.74-8.67,1.16-2.62,3.11-4.73,5.83-6.35,2.73-1.62,6.27-2.43,10.63-2.43,1.42,0,2.72.07,3.9.22,1.18.15,2.32.35,3.41.6l-.38,7.63c-1.31-.25-2.43-.43-3.35-.52-.93-.09-1.97-.14-3.13-.14-3.24,0-5.63.8-7.17,2.4-1.55,1.6-2.32,3.96-2.32,7.09s.82,5.43,2.45,7.22c1.64,1.8,3.8,2.7,6.49,2.7.87,0,1.66-.08,2.37-.25s1.46-.44,2.26-.84l5.62,6.98c-1.56.58-3.29,1.02-5.18,1.31Zm-7.74-22.52h12.92v6.11h-12.92v-6.11Zm3.87,0h9.05v21.21l-9.05-1.74V11.89Z"/>
      <path class="cls-1" d="m64.21.38h9.16c1.71,1.35,3.53,2.94,5.48,4.8,1.94,1.85,3.68,3.71,5.21,5.56V.38h7.8v33.7h-7.8v-12.16c-1.31-1.67-3.04-3.53-5.21-5.59-2.16-2.05-4.46-4.06-6.9-6.03v23.77h-7.74V.38Z"/>
      <path class="cls-1" d="m103.3,34.08h-9.05V.38h9.05v33.7Z"/>
      <path class="cls-1" d="m105.1,33.32v-7.96c1.42.69,2.93,1.19,4.53,1.5,1.6.31,3.07.46,4.42.46,1.53,0,2.63-.23,3.3-.68.67-.45,1.01-1.08,1.01-1.88,0-.55-.13-1.03-.38-1.44-.25-.42-.78-.88-1.58-1.39-.8-.51-2-1.13-3.6-1.85-2.84-1.27-4.81-2.73-5.92-4.36-1.11-1.64-1.66-3.44-1.66-5.4,0-3.82,1.34-6.49,4.01-8.02,2.67-1.53,6.06-2.29,10.17-2.29,2.43,0,4.63.24,6.6.71l-.33,7.25c-2.29-.51-4.4-.76-6.33-.76-1.31,0-2.48.17-3.52.52-1.04.35-1.55,1.03-1.55,2.04,0,.62.33,1.15.98,1.61.65.45,1.98,1.15,3.98,2.1,2.07.98,3.68,1.9,4.83,2.75,1.14.85,1.99,1.87,2.54,3.05.55,1.18.82,2.66.82,4.44,0,2.44-.63,4.48-1.88,6.13-1.25,1.65-2.93,2.87-5.02,3.65-2.09.78-4.39,1.17-6.9,1.17-3.42,0-6.25-.46-8.51-1.36Z"/>
    </g>
    <path class="cls-1" d="m125.64,7.51c-41.3-1.79-69.05-.29-107.25,17.13-3.6,1.55-10.85,4.84-14.39,6.53,0,0,6.98-3.72,6.98-3.72C27.41,19.03,44.33,10.9,62.43,6.79,83.16,1.91,104.58,1.12,125.77.86c0,0-.13,6.65-.13,6.65h0Z"/>
  </g>
</svg>