<?xml version="1.0" encoding="UTF-8"?>
<svg id="Calque_2" data-name="Calque 2" xmlns="http://www.w3.org/2000/svg" viewBox="0 0 149.86 70.24">
  <defs>
    <style>
      .cls-1 {
        fill: #fff;
        stroke-width: 0px;
      }
    </style>
  </defs>
  <g id="Calque_1-2" data-name="Calque 1">
    <g>
      <path class="cls-1" d="m17.08,42.43c-2.66-1.8-3.99-4.53-3.99-8.19,0-3.18,1.23-5.92,3.7-8.22,2.47-2.3,7.31-3.76,14.52-4.38l1.64-.14-.71.71c-.28-1.71-1.01-2.85-2.17-3.42-1.16-.57-2.62-.85-4.38-.85-1.42,0-3.05.25-4.88.75-1.83.5-3.48,1.13-4.95,1.89l-.5-8.33c1.42-1,3.26-1.82,5.52-2.46,2.25-.64,4.38-.96,6.37-.96,3.51,0,6.46.43,8.83,1.28,2.37.85,4.24,2.4,5.59,4.63,1.35,2.23,2.03,5.36,2.03,9.4v19.01l-5.62,1.14c-3.66.57-7.12.85-10.4.85-4.41,0-7.95-.9-10.61-2.71Zm15.31-15.52l.71.64-1.85.21c-4.51.52-6.76,2.16-6.76,4.91,0,1.52.45,2.63,1.35,3.35.9.71,2.06,1.07,3.49,1.07,1.33,0,2.52-.33,3.56-1l-.5.85v-10.04Z"/>
      <path class="cls-1" d="m45.63,43.64v-9.47c1.66.81,3.3,1.38,4.91,1.71,1.61.33,3.16.5,4.63.5s2.62-.13,3.45-.39c.83-.26,1.25-.82,1.25-1.67,0-.66-.28-1.2-.85-1.6-.57-.4-1.92-1.03-4.06-1.89-3.56-1.47-5.99-3.04-7.3-4.7-1.31-1.66-1.96-3.7-1.96-6.12,0-4.18,1.55-7.11,4.66-8.79,3.11-1.68,7.08-2.53,11.93-2.53,3.13,0,5.6.33,7.4,1l-.36,8.61c-2.61-.57-4.89-.85-6.83-.85-1.8,0-3.11.16-3.92.46-.81.31-1.21.77-1.21,1.39,0,.52.29.99.85,1.39.57.4,1.95,1.03,4.13,1.89,2.47,1,4.35,1.96,5.66,2.88,1.3.93,2.22,1.97,2.74,3.13.52,1.16.78,2.62.78,4.38,0,4.51-1.54,7.69-4.63,9.54-3.09,1.85-7.24,2.78-12.46,2.78-3.37,0-6.31-.55-8.83-1.64Z"/>
      <path class="cls-1" d="m73.68,0h11.39v44.43h-11.39V0Zm20.22,9.18h11.32c-1.85,3.8-4.73,7.52-8.65,11.18s-8.48,7.12-13.71,10.39l-.85-8.12c5.6-4.46,9.56-8.95,11.89-13.46Zm-2.56,28.16c-.38-1.92-1.03-4.05-1.96-6.37-.93-2.33-2.15-4.42-3.67-6.27l8.12-4.41c3.37,2.09,5.84,5.08,7.41,8.97,1.57,3.89,2.61,8.95,3.13,15.17h-11.89c-.38-2.8-.76-5.16-1.14-7.08Z"/>
    </g>
    <path class="cls-1" d="m0,68.79c38.18-.22,93.17-3.81,126.64-22.32,5.09-2.91,9.69-6.44,13.14-10.53,2.04-2.41,5.64-2.72,8.05-.68,2.54,2.13,2.72,6.04.38,8.39C118.6,73.22,40.04,71.65,0,68.79h0Z"/>
  </g>
</svg>