<?xml version="1.0" encoding="utf-8"?>
<!-- Generator: Adobe Illustrator 28.0.0, SVG Export Plug-In . SVG Version: 6.00 Build 0)  -->
<svg version="1.1" id="Calque_2_00000039129480914319484480000002279153455313903256_"
	 xmlns="http://www.w3.org/2000/svg" xmlns:xlink="http://www.w3.org/1999/xlink" x="0px" y="0px" viewBox="0 0 127.4 34.8"
	 style="enable-background:new 0 0 127.4 34.8;" xml:space="preserve">
<g>
	<path d="M8.7,3.5c0,0,8.3,3.4,8.9,10.8s-4.9,9.4-6.6,9.9S1,25,0.1,16.9c-0.6-4.5,3.6-8,3.6-8s-0.5,5.5,0.2,5.9
		C3.9,14.8,9.9,11.2,8.7,3.5z"/>
	<g>
		<path d="M31.4,34.1h-9.1V0.4h9C31.4,0.4,31.4,34.1,31.4,34.1z"/>
		<path d="M57,34.4c-1.9,0.3-3.7,0.4-5.3,0.4c-3.6,0-6.7-0.7-9.4-2.1c-2.7-1.4-4.8-3.4-6.2-6c-1.5-2.6-2.2-5.7-2.2-9.3
			c0-3.2,0.6-6.1,1.7-8.7s3.1-4.7,5.8-6.3C44.1,0.8,47.6,0,52,0c1.4,0,2.7,0.1,3.9,0.2s2.3,0.3,3.4,0.6l-0.4,7.6
			c-1.3-0.2-2.4-0.4-3.3-0.5c-0.9-0.1-2-0.1-3.1-0.1c-3.2,0-5.6,0.8-7.2,2.4c-1.5,1.6-2.3,4-2.3,7.1s0.8,5.4,2.5,7.2
			c1.6,1.8,3.8,2.7,6.5,2.7c0.9,0,1.7-0.1,2.4-0.2s1.5-0.4,2.3-0.8l5.6,7C60.6,33.7,58.8,34.1,57,34.4z M49.2,11.9h12.9V18H49.2
			V11.9z M53.1,11.9h9v21.2l-9-1.7C53.1,31.4,53.1,11.9,53.1,11.9z"/>
		<path d="M64.2,0.4h9.2c1.7,1.4,3.5,2.9,5.5,4.8c1.9,1.8,3.7,3.7,5.2,5.6V0.4h7.8v33.7h-7.8V21.9c-1.3-1.7-3-3.5-5.2-5.6
			c-2.2-2.1-4.5-4.1-6.9-6v23.8h-7.7V0.4z"/>
		<path d="M103.3,34.1h-9.1V0.4h9.1V34.1z"/>
		<path d="M105.1,33.3v-8c1.4,0.7,2.9,1.2,4.5,1.5s3.1,0.5,4.4,0.5c1.5,0,2.6-0.2,3.3-0.7c0.7-0.5,1-1.1,1-1.9c0-0.5-0.1-1-0.4-1.4
			c-0.2-0.4-0.8-0.9-1.6-1.4s-2-1.1-3.6-1.9c-2.8-1.3-4.8-2.7-5.9-4.4c-1.1-1.6-1.7-3.4-1.7-5.4c0-3.8,1.3-6.5,4-8
			c2.7-1.5,6.1-2.3,10.2-2.3c2.4,0,4.6,0.2,6.6,0.7L125.7,8c-2.3-0.5-4.4-0.8-6.3-0.8c-1.3,0-2.5,0.2-3.5,0.5c-1,0.3-1.6,1-1.6,2
			c0,0.6,0.3,1.1,1,1.6c0.7,0.4,2,1.1,4,2.1c2.1,1,3.7,1.9,4.8,2.8c1.1,0.9,2,1.9,2.5,3c0.6,1.2,0.8,2.7,0.8,4.4
			c0,2.4-0.6,4.5-1.9,6.1c-1.2,1.6-2.9,2.9-5,3.7c-2.1,0.8-4.4,1.2-6.9,1.2C110.2,34.7,107.4,34.2,105.1,33.3L105.1,33.3z"/>
	</g>
	<path d="M125.6,7.5C84.3,5.7,56.6,7.2,18.4,24.6C14.8,26.2,7.5,29.5,4,31.2l7-3.7C27.4,19,44.3,10.9,62.4,6.8
		c20.7-4.9,42.2-5.7,63.3-5.9L125.6,7.5L125.6,7.5z"/>
</g>
</svg>
